<?xml version="1.0" standalone="no"?>
<!DOCTYPE svg PUBLIC "-//W3C//DTD SVG 20010904//EN"
 "http://www.w3.org/TR/2001/REC-SVG-20010904/DTD/svg10.dtd">
<svg version="1.0" xmlns="http://www.w3.org/2000/svg"
 width="128.000000pt" height="128.000000pt" viewBox="0 0 128.000000 128.000000"
 preserveAspectRatio="xMidYMid meet">
<metadata>
Created by potrace 1.11, written by Peter Selinger 2001-2013
</metadata>
<g transform="translate(0.000000,128.000000) scale(0.100000,-0.100000)"
fill="#000000" stroke="none">
<path d="M520 1154 c-342 -20 -460 -39 -460 -74 0 -6 11 -3 24 5 30 20 166 32
511 45 329 13 450 13 490 0 42 -14 61 -58 75 -172 5 -46 14 -112 20 -148 5
-36 10 -100 10 -144 0 -43 5 -106 11 -140 7 -40 8 -104 2 -185 l-8 -124 -38
-13 c-41 -14 -677 -54 -845 -53 -168 1 -189 18 -203 169 -5 47 -13 130 -19
185 -5 55 -17 181 -25 280 -20 216 -35 286 -29 134 2 -58 6 -128 9 -156 4 -45
6 -120 4 -163 0 -8 2 -31 6 -50 3 -19 7 -78 9 -130 6 -156 27 -250 57 -250 6
0 8 -4 5 -9 -3 -5 7 -17 22 -27 23 -16 48 -19 167 -19 77 0 226 5 330 12 105
7 242 15 305 18 200 11 260 28 281 81 5 15 7 93 5 182 -5 145 -9 206 -22 337
-3 28 -7 68 -9 90 -23 233 -41 291 -99 319 -42 20 -255 20 -586 0z"/>
<path d="M710 1079 c-437 -26 -555 -40 -584 -68 -20 -21 -21 -30 -18 -169 2
-81 7 -181 12 -222 6 -55 7 -30 3 95 -8 305 -12 296 127 310 70 7 245 20 476
35 206 13 218 11 288 -57 57 -56 74 -98 90 -230 23 -178 39 -410 31 -449 -11
-59 -32 -66 -243 -74 -103 -5 -261 -14 -352 -20 -121 -9 -176 -9 -205 -1 -63
17 -132 66 -165 118 -31 49 -40 52 -16 5 22 -41 86 -99 136 -121 55 -25 109
-26 428 -6 130 8 269 16 309 17 60 3 76 8 99 28 l26 25 -5 160 c-8 213 -32
417 -56 470 -25 58 -87 124 -136 146 -42 20 -49 20 -245 8z"/>
<path d="M165 817 c-15 -23 -15 -34 -1 -130 9 -57 16 -121 16 -140 0 -39 21
-67 49 -67 35 0 44 25 36 102 l-7 73 22 -28 c26 -33 70 -57 103 -57 27 0 60
32 78 75 l12 30 9 -50 c22 -122 21 -120 56 -123 23 -2 34 2 38 13 10 24 -42
275 -59 293 -24 23 -62 8 -77 -30 -16 -45 -64 -138 -70 -137 -14 2 -126 147
-130 169 -7 36 -53 40 -75 7z"/>
<path d="M874 785 c-42 -42 -4 -61 57 -30 59 31 67 -11 12 -62 -29 -28 -35
-38 -26 -52 11 -16 18 -16 81 -5 29 6 32 4 32 -18 0 -30 -20 -49 -84 -80 -58
-27 -68 -45 -31 -54 36 -9 113 22 153 62 43 43 43 84 1 126 -24 25 -29 36 -24
59 16 70 -114 111 -171 54z"/>
<path d="M608 783 c-3 -11 -1 -47 4 -79 5 -33 13 -90 16 -129 6 -64 9 -71 36
-84 36 -17 46 -5 46 55 0 40 2 42 35 48 19 4 48 18 65 32 77 65 2 153 -144
170 -47 6 -54 4 -58 -13z m125 -54 c32 -17 38 -31 20 -51 -32 -36 -63 -18 -63
38 0 27 10 30 43 13z"/>
<path d="M132 480 c0 -14 2 -19 5 -12 2 6 2 18 0 25 -3 6 -5 1 -5 -13z"/>
</g>
</svg>
